<svg width="126" height="126" viewBox="0 0 126 126" fill="none" xmlns="http://www.w3.org/2000/svg">
<path fill-rule="evenodd" clip-rule="evenodd" d="M16 0H110C118.837 0 126 7.16344 126 16V110C126 118.837 118.837 126 110 126H16C7.16344 126 0 118.837 0 110V16C0 7.16344 7.16344 0 16 0ZM48.375 77.178H77.625C78.5201 77.178 79.3785 76.8224 80.0115 76.1895C80.6444 75.5565 81 74.6981 81 73.803V53.553C81 52.6579 80.6444 51.7994 80.0115 51.1665C79.3785 50.5336 78.5201 50.178 77.625 50.178H48.375C47.4799 50.178 46.6214 50.5336 45.9885 51.1665C45.3556 51.7994 45 52.6579 45 53.553V73.803C45 74.6981 45.3556 75.5565 45.9885 76.1895C46.6214 76.8224 47.4799 77.178 48.375 77.178ZM50.6872 54.7797C51.3348 54.3469 52.0961 54.116 52.875 54.116C53.3922 54.1158 53.9043 54.2176 54.3822 54.4155C54.86 54.6133 55.2942 54.9034 55.6599 55.2691C56.0256 55.6348 56.3156 56.069 56.5135 56.5468C56.7114 57.0247 56.8131 57.5368 56.813 58.054C56.813 58.8328 56.582 59.5942 56.1493 60.2418C55.7166 60.8894 55.1016 61.3942 54.382 61.6922C53.6624 61.9903 52.8706 62.0683 52.1067 61.9163C51.3428 61.7644 50.6412 61.3893 50.0904 60.8386C49.5397 60.2878 49.1646 59.5861 49.0127 58.8222C48.8607 58.0583 48.9387 57.2665 49.2368 56.547C49.5348 55.8274 50.0396 55.2124 50.6872 54.7797ZM76.5 72.678H49.5V69.303L54.532 64.278C54.6903 64.1199 54.9048 64.0311 55.1285 64.0311C55.3522 64.0311 55.5667 64.1199 55.725 64.278L59.625 68.178L69.154 58.65C69.3123 58.4919 69.5268 58.4031 69.7505 58.4031C69.9742 58.4031 70.1887 58.4919 70.347 58.65L76.5 64.803V72.678Z" fill="#7FD1B9"/>
</svg>
